<svg width="30" height="30" viewBox="0 0 30 30" fill="none" xmlns="http://www.w3.org/2000/svg">
<path fill-rule="evenodd" clip-rule="evenodd" d="M9.15 28.818C10.975 29.606 12.925 30 15 30C17.075 30 19.025 29.606 20.85 28.818C22.675 28.031 24.2625 26.9625 25.6125 25.6125C26.9625 24.2625 28.031 22.675 28.818 20.85C29.606 19.025 30 17.075 30 15C30 12.925 29.606 10.975 28.818 9.15C28.031 7.325 26.9625 5.7375 25.6125 4.3875C24.2625 3.0375 22.675 1.9685 20.85 1.1805C19.025 0.3935 17.075 0 15 0C12.925 0 10.975 0.3935 9.15 1.1805C7.325 1.9685 5.7375 3.0375 4.3875 4.3875C3.0375 5.7375 1.969 7.325 1.182 9.15C0.394 10.975 0 12.925 0 15C0 17.075 0.394 19.025 1.182 20.85C1.969 22.675 3.0375 24.2625 4.3875 25.6125C5.7375 26.9625 7.325 28.031 9.15 28.818ZM10.5 21.3333H20.5C20.9583 21.3333 21.3333 20.9583 21.3333 20.5V16.3333C21.3333 15.875 21.7083 15.5 22.1667 15.5C22.625 15.5 23 15.875 23 16.3333V21.3333C23 22.25 22.25 23 21.3333 23H9.66667C8.75 23 8 22.25 8 21.3333V9.66667C8 8.75 8.74167 8 9.66667 8H14.6667C15.125 8 15.5 8.375 15.5 8.83333C15.5 9.29167 15.125 9.66667 14.6667 9.66667H10.5C10.0417 9.66667 9.66667 10.0417 9.66667 10.5V20.5C9.66667 20.9583 10.0417 21.3333 10.5 21.3333ZM18 9.66667C17.5417 9.66667 17.1667 9.29167 17.1667 8.83333C17.1667 8.375 17.5417 8 18 8H22.1667C22.625 8 23 8.375 23 8.83333V13C23 13.4583 22.625 13.8333 22.1667 13.8333C21.7083 13.8333 21.3333 13.4583 21.3333 13V10.8417L13.725 18.45C13.4 18.775 12.875 18.775 12.55 18.45C12.225 18.125 12.225 17.6 12.55 17.275L20.1583 9.66667H18Z" fill="black"/>
</svg>
