<svg width="30" height="30" viewBox="0 0 30 30" fill="none" xmlns="http://www.w3.org/2000/svg">
<path fill-rule="evenodd" clip-rule="evenodd" d="M9.15 28.818C10.975 29.606 12.925 30 15 30C17.075 30 19.025 29.606 20.85 28.818C22.675 28.031 24.2625 26.9625 25.6125 25.6125C26.9625 24.2625 28.031 22.675 28.818 20.85C29.606 19.025 30 17.075 30 15C30 12.925 29.606 10.975 28.818 9.15C28.031 7.325 26.9625 5.7375 25.6125 4.3875C24.2625 3.0375 22.675 1.9685 20.85 1.1805C19.025 0.3935 17.075 0 15 0C12.925 0 10.975 0.3935 9.15 1.1805C7.325 1.9685 5.7375 3.0375 4.3875 4.3875C3.0375 5.7375 1.969 7.325 1.182 9.15C0.394 10.975 0 12.925 0 15C0 17.075 0.394 19.025 1.182 20.85C1.969 22.675 3.0375 24.2625 4.3875 25.6125C5.7375 26.9625 7.325 28.031 9.15 28.818ZM13 8C14.9338 8 16.5 9.56625 16.5 11.5C16.5 13.4338 14.9338 15 13 15C11.0662 15 9.5 13.4338 9.5 11.5C9.5 9.56625 11.0662 8 13 8ZM13 13.25C13.9625 13.25 14.75 12.4625 14.75 11.5C14.75 10.5375 13.9625 9.75 13 9.75C12.0375 9.75 11.25 10.5375 11.25 11.5C11.25 12.4625 12.0375 13.25 13 13.25ZM6 22V20.25C6 17.9225 10.6637 16.75 13 16.75C15.3363 16.75 20 17.9225 20 20.25V22H6ZM13 18.5C10.6375 18.5 7.925 19.6287 7.75 20.25H18.25C18.0575 19.62 15.3538 18.5 13 18.5ZM22.625 15V17.625H20.875V15H18.25V13.25H20.875V10.625H22.625V13.25H25.25V15H22.625Z" fill="black"/>
</svg>
