<svg width="47" height="34" viewBox="0 0 47 34" fill="current" xmlns="http://www.w3.org/2000/svg">
<path d="M2.11483 34C1.51563 34 1.01371 33.796 0.609072 33.388C0.203024 32.9814 0 32.4771 0 31.875V28.05C0 26.8458 0.308765 25.7387 0.926297 24.7286C1.54242 23.72 2.36156 22.95 3.38373 22.4188C5.56906 21.3208 7.78963 20.497 10.0455 19.9474C12.3013 19.3991 14.5923 19.125 16.9187 19.125C19.245 19.125 21.536 19.3991 23.7919 19.9474C26.0477 20.497 28.2683 21.3208 30.4536 22.4188C31.4758 22.95 32.2949 23.72 32.911 24.7286C33.5286 25.7387 33.8373 26.8458 33.8373 28.05V31.875C33.8373 32.4771 33.6343 32.9814 33.2282 33.388C32.8236 33.796 32.3217 34 31.7225 34H2.11483ZM37.0624 34C37.3797 33.7521 37.6264 33.4418 37.8026 33.0693C37.9789 32.6981 38.067 32.2823 38.067 31.8219V27.625C38.067 26.0667 37.6356 24.57 36.7727 23.1349C35.9084 21.7012 34.6833 20.4708 33.0971 19.4437C34.8947 19.6562 36.5866 20.0189 38.1727 20.5317C39.7588 21.046 41.2392 21.675 42.6139 22.4188C43.8828 23.1271 44.8521 23.9147 45.5218 24.7817C46.1915 25.6502 46.5263 26.5979 46.5263 27.625V31.875C46.5263 32.4771 46.3233 32.9814 45.9172 33.388C45.5126 33.796 45.0107 34 44.4115 34H37.0624ZM16.9187 17C14.5923 17 12.6009 16.1677 10.9443 14.5031C9.28764 12.8385 8.45933 10.8375 8.45933 8.5C8.45933 6.1625 9.28764 4.16146 10.9443 2.49688C12.6009 0.832292 14.5923 0 16.9187 0C19.245 0 21.2364 0.832292 22.8931 2.49688C24.5497 4.16146 25.378 6.1625 25.378 8.5C25.378 10.8375 24.5497 12.8385 22.8931 14.5031C21.2364 16.1677 19.245 17 16.9187 17ZM38.067 8.5C38.067 10.8375 37.2387 12.8385 35.5821 14.5031C33.9254 16.1677 31.934 17 29.6077 17C29.2199 17 28.7265 16.9561 28.1273 16.8682C27.5281 16.779 27.0346 16.6812 26.6469 16.575C27.5986 15.4417 28.3296 14.1844 28.84 12.8031C29.3518 11.4219 29.6077 9.9875 29.6077 8.5C29.6077 7.0125 29.3518 5.57812 28.84 4.19687C28.3296 2.81562 27.5986 1.55833 26.6469 0.425C27.1404 0.247916 27.6338 0.132459 28.1273 0.0786254C28.6207 0.0262087 29.1142 0 29.6077 0C31.934 0 33.9254 0.832292 35.5821 2.49688C37.2387 4.16146 38.067 6.1625 38.067 8.5Z" fill="current"/>
<defs>
<linearGradient id="gradient_active_1" x1="23.2632" y1="0" x2="23.2632" y2="34" gradientUnits="userSpaceOnUse">
<stop stop-color="#FFA347"/>
<stop offset="1" stop-color="#FF8000"/>
</linearGradient>
</defs>
</svg>
