<svg width="30" height="30" viewBox="0 0 30 30" fill="none" xmlns="http://www.w3.org/2000/svg">
<path fill-rule="evenodd" clip-rule="evenodd" d="M9.15 28.818C10.975 29.606 12.925 30 15 30C17.075 30 19.025 29.606 20.85 28.818C22.675 28.031 24.2625 26.9625 25.6125 25.6125C26.9625 24.2625 28.031 22.675 28.818 20.85C29.606 19.025 30 17.075 30 15C30 12.925 29.606 10.975 28.818 9.15C28.031 7.325 26.9625 5.7375 25.6125 4.3875C24.2625 3.0375 22.675 1.9685 20.85 1.1805C19.025 0.3935 17.075 0 15 0C12.925 0 10.975 0.3935 9.15 1.1805C7.325 1.9685 5.7375 3.0375 4.3875 4.3875C3.0375 5.7375 1.969 7.325 1.182 9.15C0.394 10.975 0 12.925 0 15C0 17.075 0.394 19.025 1.182 20.85C1.969 22.675 3.0375 24.2625 4.3875 25.6125C5.7375 26.9625 7.325 28.031 9.15 28.818ZM15.3744 11.8211L17.1381 11.7015L17.7281 13.3679C17.7553 13.4536 17.8042 13.5178 17.8749 13.5603C17.9455 13.6031 18.0194 13.6235 18.0967 13.6214C18.1739 13.6194 18.2479 13.5964 18.3187 13.5524C18.3893 13.5082 18.4356 13.4406 18.4576 13.3494L18.9651 11.5896L20.653 11.5333C20.7443 11.533 20.8204 11.5038 20.8813 11.4458C20.9422 11.3877 20.9811 11.3228 20.998 11.2509C21.0149 11.179 21.0116 11.1032 20.988 11.0235C20.9644 10.9439 20.9154 10.8798 20.8412 10.831L19.4178 9.89566L19.9537 8.07529C19.9757 7.98412 19.9718 7.90039 19.9421 7.82413C19.9124 7.74821 19.8658 7.68935 19.8022 7.64755C19.7385 7.60574 19.666 7.58629 19.5845 7.58919C19.5027 7.59216 19.4244 7.62181 19.3494 7.67815L17.8911 8.89235L16.4677 7.95697C16.3935 7.9082 16.3152 7.88873 16.2328 7.89857C16.1503 7.90862 16.0794 7.93566 16.0201 7.97967C15.9608 8.02369 15.9166 8.08517 15.8875 8.16411C15.8584 8.24305 15.8618 8.32449 15.8978 8.40844L16.5159 9.98011L15.1019 11.1442C15.0269 11.2006 14.9833 11.27 14.971 11.3524C14.9585 11.4347 14.9667 11.5117 14.9954 11.5834C15.0242 11.6552 15.0722 11.7149 15.1395 11.7627C15.2066 11.8108 15.2849 11.8302 15.3744 11.8211ZM17.1381 21.7015L15.3744 21.8211C15.2849 21.8302 15.2066 21.8108 15.1395 21.7627C15.0722 21.7149 15.0242 21.6552 14.9954 21.5834C14.9667 21.5117 14.9585 21.4347 14.971 21.3524C14.9833 21.27 15.0269 21.2006 15.1019 21.1442L16.5159 19.9801L15.8978 18.4084C15.8618 18.3245 15.8584 18.243 15.8875 18.1641C15.9166 18.0852 15.9608 18.0237 16.0201 17.9797C16.0794 17.9357 16.1503 17.9086 16.2328 17.8986C16.3152 17.8887 16.3935 17.9082 16.4677 17.957L17.8911 18.8923L19.3494 17.6781C19.4244 17.6218 19.5027 17.5922 19.5845 17.5892C19.666 17.5863 19.7385 17.6057 19.8022 17.6475C19.8658 17.6894 19.9124 17.7482 19.9421 17.8241C19.9718 17.9004 19.9757 17.9841 19.9537 18.0753L19.4178 19.8957L20.8412 20.831C20.9154 20.8798 20.9644 20.9439 20.988 21.0235C21.0116 21.1032 21.0149 21.179 20.998 21.2509C20.9811 21.3228 20.9422 21.3877 20.8813 21.4458C20.8204 21.5038 20.7443 21.533 20.653 21.5333L18.9651 21.5896L18.4576 23.3494C18.4356 23.4406 18.3893 23.5082 18.3187 23.5524C18.2479 23.5964 18.1739 23.6194 18.0967 23.6214C18.0194 23.6235 17.9455 23.6031 17.8749 23.5603C17.8042 23.5178 17.7553 23.4536 17.7281 23.3679L17.1381 21.7015ZM7.37437 16.8211L9.13807 16.7015L9.72812 18.3679C9.75528 18.4536 9.80421 18.5178 9.87493 18.5603C9.94551 18.6031 10.0194 18.6235 10.0967 18.6214C10.1739 18.6194 10.2479 18.5964 10.3187 18.5524C10.3893 18.5082 10.4356 18.4406 10.4576 18.3494L10.9651 16.5896L12.653 16.5333C12.7443 16.533 12.8204 16.5038 12.8813 16.4458C12.9422 16.3877 12.9811 16.3228 12.998 16.2509C13.0149 16.179 13.0116 16.1032 12.988 16.0235C12.9644 15.9439 12.9154 15.8798 12.8412 15.831L11.4178 14.8957L11.9537 13.0753C11.9757 12.9841 11.9718 12.9004 11.9421 12.8241C11.9124 12.7482 11.8658 12.6894 11.8022 12.6475C11.7385 12.6057 11.666 12.5863 11.5845 12.5892C11.5027 12.5922 11.4244 12.6218 11.3494 12.6781L9.89109 13.8923L8.46771 12.957C8.39349 12.9082 8.3152 12.8887 8.23282 12.8986C8.15031 12.9086 8.07942 12.9357 8.02013 12.9797C7.96084 13.0237 7.91664 13.0852 7.88754 13.1641C7.85844 13.243 7.86184 13.3245 7.89776 13.4084L8.51589 14.9801L7.1019 16.1442C7.02693 16.2006 6.9833 16.27 6.97101 16.3524C6.95852 16.4347 6.96666 16.5117 6.99544 16.5834C7.02422 16.6552 7.07223 16.7149 7.13949 16.7627C7.2066 16.8108 7.2849 16.8302 7.37437 16.8211Z" fill="black"/>
</svg>
