<svg width="31" height="34" viewBox="0 0 31 34" fill="current" xmlns="http://www.w3.org/2000/svg">
<path d="M3.81034 34C2.7625 34 1.8658 33.6198 1.12024 32.8595C0.373413 32.0979 0 31.1829 0 30.1143V12.6286C0 12.0133 0.135267 11.4305 0.405801 10.88C0.675066 10.3295 1.04785 9.87619 1.52414 9.52L12.9552 0.777143C13.3045 0.518095 13.6696 0.323809 14.0506 0.194286C14.4317 0.0647617 14.8286 0 15.2414 0C15.6542 0 16.0511 0.0647617 16.4321 0.194286C16.8131 0.323809 17.1783 0.518095 17.5276 0.777143L28.9586 9.52C29.4349 9.87619 29.8083 10.3295 30.0789 10.88C30.3481 11.4305 30.4828 12.0133 30.4828 12.6286V30.1143C30.4828 31.1829 30.11 32.0979 29.3644 32.8595C28.6176 33.6198 27.7203 34 26.6724 34H19.0517V20.4H11.431V34H3.81034Z" fill="current"/>
<defs>
<linearGradient id="gradient_active" x1="15.947" y1="9.25885e-07" x2="15.947" y2="34" gradientUnits="userSpaceOnUse">
<stop stop-color="#FFA347"/>
<stop offset="1" stop-color="#FF8000"/>
</linearGradient>
</defs>
</svg>
