<svg width="30" height="30" viewBox="0 0 30 30" fill="none" xmlns="http://www.w3.org/2000/svg">
<path fill-rule="evenodd" clip-rule="evenodd" d="M9.15 28.818C10.975 29.606 12.925 30 15 30C17.075 30 19.025 29.606 20.85 28.818C22.675 28.031 24.2625 26.9625 25.6125 25.6125C26.9625 24.2625 28.031 22.675 28.818 20.85C29.606 19.025 30 17.075 30 15C30 12.925 29.606 10.975 28.818 9.15C28.031 7.325 26.9625 5.7375 25.6125 4.3875C24.2625 3.0375 22.675 1.9685 20.85 1.1805C19.025 0.3935 17.075 0 15 0C12.925 0 10.975 0.3935 9.15 1.1805C7.325 1.9685 5.7375 3.0375 4.3875 4.3875C3.0375 5.7375 1.969 7.325 1.182 9.15C0.394 10.975 0 12.925 0 15C0 17.075 0.394 19.025 1.182 20.85C1.969 22.675 3.0375 24.2625 4.3875 25.6125C5.7375 26.9625 7.325 28.031 9.15 28.818ZM16.6979 17.6167C16.1985 17.9963 15.6292 18.186 14.99 18.186C14.3508 18.186 13.7815 17.9963 13.2821 17.6167C12.7828 17.2372 12.4199 16.7478 12.1935 16.1486H17.7865C17.5601 16.7478 17.1973 17.2372 16.6979 17.6167ZM13.8414 14.6404C13.6084 14.8735 13.3254 14.99 12.9925 14.99C12.6596 14.99 12.3766 14.8735 12.1436 14.6404C11.9105 14.4074 11.794 14.1244 11.794 13.7915C11.794 13.4586 11.9105 13.1756 12.1436 12.9426C12.3766 12.7095 12.6596 12.593 12.9925 12.593C13.3254 12.593 13.6084 12.7095 13.8414 12.9426C14.0745 13.1756 14.191 13.4586 14.191 13.7915C14.191 14.1244 14.0745 14.4074 13.8414 14.6404ZM17.8365 14.6404C17.6034 14.8735 17.3204 14.99 16.9875 14.99C16.6546 14.99 16.3716 14.8735 16.1386 14.6404C15.9055 14.4074 15.789 14.1244 15.789 13.7915C15.789 13.4586 15.9055 13.1756 16.1386 12.9426C16.3716 12.7095 16.6546 12.593 16.9875 12.593C17.3204 12.593 17.6034 12.7095 17.8365 12.9426C18.0695 13.1756 18.186 13.4586 18.186 13.7915C18.186 14.1244 18.0695 14.4074 17.8365 14.6404ZM13.7316 7.61923L11.4944 10.5156L8.09863 11.6542C7.75239 11.774 7.48273 11.9771 7.28964 12.2634C7.09655 12.5497 7 12.8593 7 13.1923C7 13.3521 7.0233 13.5119 7.06991 13.6717C7.11652 13.8315 7.19309 13.9846 7.29963 14.1311L9.4769 17.2272L9.397 20.5231C9.38369 20.9892 9.53683 21.382 9.85643 21.7016C10.176 22.0212 10.5489 22.181 10.975 22.181C11.0416 22.181 11.1149 22.1777 11.1948 22.171C11.2747 22.1644 11.3479 22.1477 11.4145 22.1211L14.99 21.1223L18.5655 22.1211C18.8319 22.161 18.9784 22.181 19.005 22.181C19.4311 22.181 19.804 22.0212 20.1236 21.7016C20.4432 21.382 20.5963 20.9892 20.583 20.5231L20.5031 17.2472L22.7004 14.1311C22.8069 13.9846 22.8835 13.8315 22.9301 13.6717C22.9767 13.5119 23 13.3521 23 13.1923C23 12.846 22.9001 12.5298 22.7004 12.2434C22.5006 11.9571 22.2276 11.7607 21.8814 11.6542L18.4856 10.5156L16.2484 7.61923C16.0886 7.40616 15.8989 7.24969 15.6792 7.14981C15.4594 7.04994 15.2297 7 14.99 7C14.7503 7 14.5206 7.04994 14.3009 7.14981C14.0811 7.24969 13.8914 7.40616 13.7316 7.61923Z" fill="black"/>
</svg>
