<svg width="30" height="30" viewBox="0 0 30 30" fill="none" xmlns="http://www.w3.org/2000/svg">
<path fill-rule="evenodd" clip-rule="evenodd" d="M9.15 28.818C10.975 29.606 12.925 30 15 30C17.075 30 19.025 29.606 20.85 28.818C22.675 28.031 24.2625 26.9625 25.6125 25.6125C26.9625 24.2625 28.031 22.675 28.818 20.85C29.606 19.025 30 17.075 30 15C30 12.925 29.606 10.975 28.818 9.15C28.031 7.325 26.9625 5.7375 25.6125 4.3875C24.2625 3.0375 22.675 1.9685 20.85 1.1805C19.025 0.3935 17.075 0 15 0C12.925 0 10.975 0.3935 9.15 1.1805C7.325 1.9685 5.7375 3.0375 4.3875 4.3875C3.0375 5.7375 1.969 7.325 1.182 9.15C0.394 10.975 0 12.925 0 15C0 17.075 0.394 19.025 1.182 20.85C1.969 22.675 3.0375 24.2625 4.3875 25.6125C5.7375 26.9625 7.325 28.031 9.15 28.818ZM16.6602 11.0193C16.7105 11.0696 16.7629 11.1165 16.8172 11.16L10.8462 17.1311C10.8027 17.0768 10.7558 17.0243 10.7055 16.974C9.96552 16.2341 8.76584 16.2341 8.0259 16.974C7.28596 17.714 7.28596 18.9136 8.0259 19.6536C8.76584 20.3935 9.96552 20.3935 10.7055 19.6536C10.7558 19.6032 10.8028 19.5507 10.8463 19.4964L10.8626 19.5128C10.8084 19.5562 10.7559 19.6031 10.7056 19.6535C9.96565 20.3934 9.96565 21.5931 10.7056 22.333C11.4455 23.073 12.6452 23.073 13.3852 22.333C14.1251 21.5931 14.1251 20.3934 13.3852 19.6535C13.3348 19.6031 13.2824 19.5563 13.2281 19.5128L19.1991 13.5418C19.2425 13.5961 19.2894 13.6486 19.3397 13.6989C20.0797 14.4388 21.2794 14.4388 22.0193 13.6989C22.7592 12.9589 22.7592 11.7593 22.0193 11.0193C21.3297 10.3297 20.2407 10.2828 19.4968 10.8786L19.4804 10.8623C20.0763 10.1183 20.0294 9.02937 19.3397 8.33975C18.5998 7.5998 17.4001 7.5998 16.6602 8.33975C15.9202 9.07969 15.9202 10.2794 16.6602 11.0193Z" fill="black"/>
</svg>
