<svg width="30" height="30" viewBox="0 0 30 30" fill="none" xmlns="http://www.w3.org/2000/svg">
<path fill-rule="evenodd" clip-rule="evenodd" d="M9.15 28.818C10.975 29.606 12.925 30 15 30C17.075 30 19.025 29.606 20.85 28.818C22.675 28.031 24.2625 26.9625 25.6125 25.6125C26.9625 24.2625 28.031 22.675 28.818 20.85C29.606 19.025 30 17.075 30 15C30 12.925 29.606 10.975 28.818 9.15C28.031 7.325 26.9625 5.7375 25.6125 4.3875C24.2625 3.0375 22.675 1.9685 20.85 1.1805C19.025 0.3935 17.075 0 15 0C12.925 0 10.975 0.3935 9.15 1.1805C7.325 1.9685 5.7375 3.0375 4.3875 4.3875C3.0375 5.7375 1.969 7.325 1.182 9.15C0.394 10.975 0 12.925 0 15C0 17.075 0.394 19.025 1.182 20.85C1.969 22.675 3.0375 24.2625 4.3875 25.6125C5.7375 26.9625 7.325 28.031 9.15 28.818ZM9.69279 15.4765V23.3009H18.6583V18.4107L20.3292 16.7398C20.8997 16.1693 21.3208 15.5376 21.5925 14.8448C21.8642 14.152 22 13.4389 22 12.7053C22 11.9718 21.8642 11.2551 21.5925 10.5552C21.3208 9.85592 20.8997 9.2278 20.3292 8.67085L18.6583 7L15.3981 10.2602H12.1379L9.46865 12.9498C9.31923 13.0993 9.20376 13.2726 9.12226 13.4698C9.04075 13.6665 9 13.8736 9 14.0909C9 14.2947 9.04075 14.4984 9.12226 14.7022C9.20376 14.906 9.31923 15.0893 9.46865 15.2524L9.69279 15.4765ZM17.0282 21.6708H11.3229V17.1066L13.7069 19.4906C14.1008 19.0967 14.3997 18.6451 14.6034 18.136C14.8072 17.6263 14.9091 17.1134 14.9091 16.5972C14.9091 16.081 14.8072 15.5716 14.6034 15.069C14.3997 14.5664 14.1008 14.1181 13.7069 13.7241L12.3417 12.3589L12.8103 11.8903H16.0705L18.6583 9.30251L19.1677 9.83229C19.5617 10.2262 19.8605 10.6745 20.0643 11.1771C20.268 11.6797 20.3699 12.1891 20.3699 12.7053C20.3699 13.2215 20.268 13.7342 20.0643 14.2433C19.8605 14.753 19.5617 15.2048 19.1677 15.5987L17.0282 17.7382V21.6708Z" fill="black"/>
</svg>
