<svg width="30" height="30" viewBox="0 0 30 30" fill="none" xmlns="http://www.w3.org/2000/svg">
<path fill-rule="evenodd" clip-rule="evenodd" d="M9.15 28.818C10.975 29.606 12.925 30 15 30C17.075 30 19.025 29.606 20.85 28.818C22.675 28.031 24.2625 26.9625 25.6125 25.6125C26.9625 24.2625 28.031 22.675 28.818 20.85C29.606 19.025 30 17.075 30 15C30 12.925 29.606 10.975 28.818 9.15C28.031 7.325 26.9625 5.7375 25.6125 4.3875C24.2625 3.0375 22.675 1.9685 20.85 1.1805C19.025 0.3935 17.075 0 15 0C12.925 0 10.975 0.3935 9.15 1.1805C7.325 1.9685 5.7375 3.0375 4.3875 4.3875C3.0375 5.7375 1.969 7.325 1.182 9.15C0.394 10.975 0 12.925 0 15C0 17.075 0.394 19.025 1.182 20.85C1.969 22.675 3.0375 24.2625 4.3875 25.6125C5.7375 26.9625 7.325 28.031 9.15 28.818ZM21.6302 9.56569C21.9426 9.25327 21.9426 8.74673 21.6302 8.43431C21.3178 8.12189 20.8112 8.12189 20.4988 8.43431L15.7419 13.1912L11.4689 8.91819C11.3189 8.76816 11.1154 8.68387 10.9032 8.68387H8C7.67643 8.68387 7.38472 8.87879 7.2609 9.17772C7.13707 9.47666 7.20552 9.82076 7.43431 10.0496L13.4009 16.0161L8.40206 21.015C8.08964 21.3274 8.08964 21.8339 8.40206 22.1463C8.71448 22.4588 9.22101 22.4588 9.53343 22.1463L14.5323 17.1475L19.5311 22.1463C19.6811 22.2964 19.8846 22.3806 20.0968 22.3806H23C23.3236 22.3806 23.6153 22.1857 23.7391 21.8868C23.8629 21.5879 23.7945 21.2438 23.5657 21.015L16.8733 14.3226L21.6302 9.56569ZM20.4281 20.7806L9.93137 10.2839H10.5719L15.1763 14.8883L21.0686 20.7806H20.4281Z" fill="black"/>
</svg>
